/* XPM */
static char *_1217c6fae654873a6ef106b85be0d47FbHJkBOiKdL0UAp6[] = {
/* columns rows colors chars-per-pixel */
"32 32 205 2 ",
"   c None",
".  c #0F182D",
"X  c #111A2E",
"o  c #0F1A34",
"O  c #131C34",
"+  c #1A2335",
"@  c #1A253C",
"#  c #1D283F",
"$  c #16233A",
"%  c #232A3D",
"&  c #20273D",
"*  c #1C2C43",
"=  c #192740",
"-  c #1E3048",
";  c #232D42",
":  c #2B3243",
">  c #24354A",
",  c #2B364A",
"<  c #263B4E",
"1  c #2B3B4E",
"2  c #353D4B",
"3  c #2A3D52",
"4  c #243B50",
"5  c #323D52",
"6  c #3C444E",
"7  c #2B4255",
"8  c #2E495C",
"9  c #2D4559",
"0  c #344253",
"q  c #394355",
"w  c #32475B",
"e  c #334B5C",
"r  c #3B4C5C",
"t  c #3B4658",
"y  c #32505F",
"u  c #3D4E60",
"i  c #364D61",
"p  c #345364",
"a  c #3B5363",
"s  c #3C5768",
"d  c #3D5C6B",
"f  c #40454E",
"g  c #424D5B",
"h  c #444C57",
"j  c #41525F",
"k  c #4C545E",
"l  c #425463",
"z  c #4B5563",
"x  c #4A5966",
"c  c #435D6C",
"v  c #4B5C69",
"b  c #465B66",
"n  c #575E66",
"m  c #525D6A",
"M  c #4D626E",
"N  c #44616E",
"B  c #55616D",
"V  c #5A646E",
"C  c #5F686E",
"Z  c #446472",
"A  c #4D6472",
"S  c #4C6A76",
"D  c #476B78",
"F  c #546672",
"G  c #5C6671",
"H  c #556A73",
"J  c #5A6B75",
"K  c #516F7A",
"L  c #5C6D79",
"P  c #4B727D",
"I  c #5A737D",
"U  c #55717C",
"Y  c #61686F",
"T  c #626E75",
"R  c #626F79",
"E  c #64747C",
"W  c #69737A",
"Q  c #6A797F",
"!  c #707B7F",
"~  c #5C7B82",
"^  c #527882",
"/  c #657C83",
"(  c #6C7B81",
")  c #737781",
"_  c #737D82",
"`  c #57838B",
"'  c #5C8E93",
"]  c #5F9297",
"[  c #6A8287",
"{  c #658289",
"}  c #6A858A",
"|  c #6B8A8E",
" . c #648387",
".. c #748087",
"X. c #72858B",
"o. c #7B838A",
"O. c #738B8D",
"+. c #7C8F8F",
"@. c #788086",
"#. c #6C8D92",
"$. c #608A91",
"%. c #758E92",
"&. c #7C8E92",
"*. c #64959A",
"=. c #6D969B",
"-. c #65989C",
";. c #6C999E",
":. c #729195",
">. c #7C9494",
",. c #7A969A",
"<. c #7B9B9C",
"1. c #72999C",
"2. c #7A9EA1",
"3. c #6FA2A3",
"4. c #76A4A6",
"5. c #838B8E",
"6. c #838B90",
"7. c #898D93",
"8. c #849494",
"9. c #899596",
"0. c #8E9598",
"q. c #849E9D",
"w. c #8B9D9A",
"e. c #829897",
"r. c #949C9D",
"t. c #83A19F",
"y. c #96A29D",
"u. c #999FA1",
"i. c #909FA2",
"p. c #84A4A3",
"a. c #8BA5A4",
"s. c #8BABA9",
"d. c #93A3A1",
"f. c #9BA4A2",
"g. c #9BA8A5",
"h. c #93ACAB",
"j. c #9BAEAD",
"k. c #95B3AD",
"l. c #9AB4AE",
"z. c #84AFB2",
"x. c #86B3B3",
"c. c #8CB4B4",
"v. c #8DBBB6",
"b. c #97BAB6",
"n. c #93BDBA",
"m. c #9ABFB9",
"M. c #9BB9B2",
"N. c #A1A7A6",
"B. c #ABAFAF",
"V. c #A4A8A8",
"C. c #A9B9AF",
"Z. c #A4B9B3",
"A. c #AABDB3",
"S. c #A4BAB5",
"D. c #B6BAB5",
"F. c #99C4BC",
"G. c #A2C4BD",
"H. c #AAC4BC",
"J. c #A6C9BF",
"K. c #BBC3BD",
"L. c #B3C5BC",
"P. c #9DC9C1",
"I. c #A3C7C2",
"U. c #AAC7C2",
"Y. c #A3CAC2",
"T. c #ADCCC4",
"R. c #B2CDC3",
"E. c #BCCCC1",
"W. c #AFD3C4",
"Q. c #A8D2C8",
"!. c #B2D5C9",
"~. c #B5DBCC",
"^. c #BADFCF",
"/. c #BED2C6",
"(. c #BDDCD1",
"). c #BDE3D2",
"_. c #C3CDC2",
"`. c #C4CBC1",
"'. c #C4D1C4",
"]. c #CED7CB",
"[. c #C3DDCD",
"{. c #CAD6CC",
"}. c #D6DACC",
"|. c #DADDD0",
" X c #C1E5D4",
".X c #CCE3D4",
"XX c #CCE9D9",
"oX c #C8E8D7",
"OX c #D9E4D4",
"+X c #D3EBDB",
"@X c #DCECDB",
"#X c #D5E4D6",
"$X c #DAF1DB",
"%X c #E2E6D5",
"&X c #E3EBDB",
"*X c #EBEFDD",
"=X c #E5F3DF",
"-X c #ECF3DF",
";X c #E9EDE0",
":X c #E3F4E0",
">X c #EBF4E2",
",X c #F4F9E5",
"<X c #FBFBE7",
"1X c #FDFEEA",
"2X c #F4FAE9",
/* pixels */
"                        k ! g K.D.z ! k                         ",
"                  k B o.f.y.a K.K.u f.f...B k                   ",
"                W '.C , 5 w.Z I U Z w.5 5 Y _.T                 ",
"            n d.X.* p E T.p.S c a K s.U.J p * O.d.n             ",
"          m 9.G W v { 3 N., %.E.E.} , g.1 } s W V r.z           ",
"        T ! I E ( C.H < a.H.<X5.0.<XH.t.< E A.E E H _ C         ",
"      : y.G 7.5.M q f.!.:X*X6.G.k.9.>X@X!.y.q x 6.0.m f.%       ",
"    6 y.1 Z.z d.'...!.Y.|.8.J./ [ J.9.}.Y.W..._.e.v j.1 y.f     ",
"    ( q e <.I Z.'.%X>Xr.B.XX>.# # q.+XV.f.>XOX].%./ :.8 t W     ",
"    8.m D - S @X:XG F Z.@Xa.@ B.f.@ l.>Xa.m E :XY.p > P z 8.    ",
"  h J p.h.p K /.M.t $X@Xp.@ 7.1X<XW ; b.=X[.j M.m.s c h.a.H f   ",
"  l.r R 5 1 <.P 4 r.@Xx.3 G -X1X1X&Xz e I.@X5.7 P =.* t F g q.  ",
"  Y.M W.l n.(.[.a.@Xc.p g <X1X1X1X1X*Xq N G.OX,.+XY.;.l W.q :.  ",
"@ k.l w.A .X'.p.>Xb.a , &X1X1X1X1X1X<X].; c T.;Xa.].I.y j.q :.O ",
"& V p X.M E.9.=XH.d ; g.).=X1X1X1X,XR.-.&.@ S R.=X8.U.r X.a B + ",
"; 2Xg.) i.` +XP.9 O k.XX X X@X1X1Xb.-.-.4.^ o s Q. X$.d.) j.2X+ ",
"% `.B o.J 1.!.Q.e $ J ~. X X X$XH.-.-.-.] e @ N ~.T.1.F @.J `.O ",
"@ x 7 ,.9 /.( .XoX;.@ x  X X X).3.-.-.*.3 # n.+XL.+.m.4 ,.3 a O ",
"+ t.l ( a Y.].&.&X.X~ $ F ). X X3.-.' e @ #.>X|.&.!.x.9 %.0 #.  ",
"  Y.l Y.3 { v.m.X.%X[.=.@ E ^. X3.] e @ 4.#X}./ F.4.Z u G.a c.  ",
"  _ l a r = d I a B >X.X=.O b  X;.< @ 2.@X&Xx a K p = l a l W   ",
"  O } A.h.s Z ~.n.w H.&XoX#.O I e O ,.XXOXl.i F.Q.e c h.Z. .X   ",
"    O.a p e 9 | +Xa.u.E 2X X/ O O [ XX,XL r.h.+X~ 7 e s r O.    ",
"    b <.e G._ C.S.k.!._.o.( ).b v ).( _ {.!.s.A.g.o.b.9 t.j     ",
"      L r N.W T '.x ;.` &X[./ ).~./ .X#X` *.m L.L W r.l J       ",
"      : / H 6.g.7 ( v 8 z.R.~./ / ^.G.;.e F ( 7 f.8.F / %       ",
"        2 { A M e./ S 8 L i | m.F. .e J 8 K / >.v A E           ",
"          : =.~ r 0 / R j.t.3 c l < s.j.G { < a ~ #.&           ",
"            @ Q ,.A * ; u.x.c s a Z c.r.@ - F ,.E %             ",
"                h >.e.F r M Z %.%.c M r J >.+.6                 ",
"                    O r %.z.3 |.`.w c.| q O                     ",
"                          . O q q O .                           "
};
