/* XPM */
static char *c297a54b628b4d57e00f5b2f53b71031rv78POsb0II5Lp0L[] = {
/* columns rows colors chars-per-pixel */
"64 64 242 2 ",
"   c None",
".  c #0F182E",
"X  c #131A2E",
"o  c #161A2E",
"O  c #0D1633",
"+  c #0F1A34",
"@  c #0F1C39",
"#  c #111A34",
"$  c #131D39",
"%  c #141934",
"&  c #152135",
"*  c #1A2234",
"=  c #15223B",
"-  c #1B253B",
";  c #1B283C",
":  c #242B3B",
">  c #242838",
",  c #2E343F",
"<  c #1A2642",
"1  c #1C2C43",
"2  c #172943",
"3  c #1E344B",
"4  c #1D3146",
"5  c #232D43",
"6  c #292E42",
"7  c #233145",
"8  c #23354B",
"9  c #2A344A",
"0  c #25394E",
"q  c #2C394D",
"w  c #2A3346",
"e  c #343B4A",
"r  c #263C52",
"t  c #2C3D52",
"y  c #2C3855",
"u  c #323D52",
"i  c #3A3E53",
"p  c #2C4355",
"a  c #2C4459",
"s  c #2D4A5C",
"d  c #244156",
"f  c #334355",
"g  c #3B4454",
"h  c #344559",
"j  c #354B5C",
"k  c #3B4B5C",
"l  c #3B4658",
"z  c #3B535F",
"x  c #37414D",
"c  c #364D61",
"v  c #335365",
"b  c #3D5464",
"n  c #365C6A",
"m  c #3A5C6B",
"M  c #375668",
"N  c #33576C",
"B  c #3B6272",
"V  c #3D6877",
"C  c #3D626E",
"Z  c #434D5C",
"A  c #44515E",
"S  c #474F62",
"D  c #445363",
"F  c #4C5463",
"G  c #435B6B",
"H  c #4B5C6A",
"J  c #475967",
"K  c #535C6B",
"L  c #545A66",
"P  c #4E5E71",
"I  c #4C626C",
"U  c #43636D",
"Y  c #57636C",
"T  c #436373",
"R  c #4C6571",
"E  c #436A74",
"W  c #4C6C79",
"Q  c #486B78",
"!  c #546472",
"~  c #546B75",
"^  c #5B6B76",
"/  c #5B6E7A",
"(  c #566B79",
")  c #48727C",
"_  c #53737D",
"`  c #5B727C",
"'  c #5C7176",
"]  c #646C74",
"[  c #646C78",
"{  c #63747B",
"}  c #6C747A",
"|  c #69767A",
" . c #71787E",
".. c #62676F",
"X. c #73817E",
"o. c #2D7686",
"O. c #4C7985",
"+. c #527C84",
"@. c #5B7C83",
"#. c #577884",
"$. c #637B84",
"%. c #6B7C83",
"&. c #667884",
"*. c #727C82",
"=. c #7A7F87",
"-. c #3A808D",
";. c #53828A",
":. c #59838A",
">. c #5C8992",
",. c #5D9096",
"<. c #4F848B",
"1. c #648186",
"2. c #6D8285",
"3. c #63828B",
"4. c #6B868B",
"5. c #748489",
"6. c #7B8C8D",
"7. c #78878A",
"8. c #638C92",
"9. c #688993",
"0. c #7D8E92",
"q. c #748D92",
"w. c #6C9295",
"e. c #64969B",
"r. c #64989C",
"t. c #6C9A9E",
"y. c #699298",
"u. c #7B9494",
"i. c #7C9B9C",
"p. c #769699",
"a. c #78908E",
"s. c #6D99A2",
"d. c #749EA2",
"f. c #7A9EA4",
"g. c #74A5A9",
"h. c #7CABAB",
"j. c #79A6A8",
"k. c #7BAFB0",
"l. c #75AAAC",
"z. c #828B8C",
"x. c #828D93",
"c. c #839495",
"v. c #8C9B9A",
"b. c #899998",
"n. c #939B9B",
"m. c #919996",
"M. c #8B948F",
"N. c #84A29E",
"B. c #87A89F",
"V. c #95A49E",
"C. c #839DA1",
"Z. c #85A4A3",
"A. c #8BACAB",
"S. c #88AAA8",
"D. c #9BA4A4",
"F. c #96A7A5",
"G. c #8AB2AD",
"H. c #93B2AC",
"J. c #9AB6AE",
"K. c #83B4B4",
"L. c #8AB4B3",
"P. c #8CBCBB",
"I. c #89B8B8",
"U. c #9ABBB5",
"Y. c #96BBB8",
"T. c #8AAEB2",
"R. c #A5ACAB",
"E. c #A4A8A6",
"W. c #A9B5AB",
"Q. c #A8B8B3",
"!. c #B6BBB6",
"~. c #B3B7AE",
"^. c #A1A89F",
"/. c #94C2BD",
"(. c #9BC4BC",
"). c #A4C4BB",
"_. c #A9C6BC",
"`. c #B4C3BB",
"'. c #BBCABD",
"]. c #B8C4B8",
"[. c #AFD2BE",
"{. c #C1CABE",
"}. c #9BC6C2",
"|. c #9CCAC4",
" X c #94C4C2",
".X c #A4CBC4",
"XX c #AACCC4",
"oX c #A9CDC8",
"OX c #BCCBC2",
"+X c #B1CCC4",
"@X c #ACD3CA",
"#X c #A8D3C8",
"$X c #B2D4C5",
"%X c #B3D4CA",
"&X c #B4DBCD",
"*X c #BBD9CB",
"=X c #BDDDD1",
"-X c #B6DDD0",
";X c #AFDDD0",
":X c #BDE4D3",
">X c #BEE8D5",
",X c #BCE5D9",
"<X c #B9E2CF",
"1X c #C4CBC3",
"2X c #C6CAC6",
"3X c #CCD3CB",
"4X c #C8D7C9",
"5X c #D8DBCA",
"6X c #C3DDD1",
"7X c #CBDDD2",
"8X c #D7DCD2",
"9X c #C1E5D3",
"0X c #CBE4D4",
"qX c #C3E9D6",
"wX c #C3EAD9",
"eX c #CCEDDB",
"rX c #C8E7D8",
"tX c #D5E3D4",
"yX c #DBE3D4",
"uX c #D4EDDB",
"iX c #DCEDDC",
"pX c #D9E7D8",
"aX c #DCF1DD",
"sX c #D0E9D3",
"dX c #E3ECDB",
"fX c #E5E9D9",
"gX c #E3F3DD",
"hX c #EAF4DD",
"jX c #EBF9DE",
"kX c #DCF1E0",
"lX c #E9EEE3",
"zX c #E5F4E2",
"xX c #ECF4E2",
"cX c #EDF8E3",
"vX c #EEF4EA",
"bX c #F2F6E4",
"nX c #F4FAE4",
"mX c #FBFDE7",
"MX c #F4FAEA",
"NX c #FCFEEA",
"BX c #F1F5EB",
"VX c #FAFCF1",
/* pixels */
"                                                  > - ; - # x.R.R.7.# ; ; ; >                                                   ",
"                                          > ; ; - D.3X'.OX- 2XNXNX~.u OXOX3XR.* ; ; ;                                           ",
"                                      X % # Z `.`.dXbX!.g # 2XNXNX!.= g '.bXdX`.`.5 # # .                                       ",
"                                  , i V.F.F.c.} } } } H 0 A.6X[ 5.$Xp.8 Y } } }  .v.F.V.F.:                                     ",
"                                  *.v.hXW.W.7.+ # + b ( E 8.R %.1.~ >.V ( j # # # V.W.W.gXx.}                                   ",
"                              K K ].5X4XO # # = ! K '.aXE r d N.i.d d E gX`.K K # # # % 4X5XW.K P                               ",
"                          : ! jXjX&.1 X d s 2 ] 8XbX$X}.K.s ) 1 8 B v P.#X-XxX3XI 2 v 3 # 8 4.jXjXF e                           ",
"                        . 4X'.W W 8 $ v C B q BXo.0X6.R R r 8 c.7.8 p ^ ~ c.+X-.lX1 V C s # 9 _ _ 1XW.o                         ",
"                    > u dXZ 5 = = # $ 5.3Xm 1 e BXNXF # r ^ ^ 7XOX^ R 3 + K NXlXw 1 m pXI = # 2 ; w ! pX6 :                     ",
"                  > g OXtXw %.1X1X!.' T ` B s p F F 1 p f.gXNXuXkXNXrXw.0 5 F F r s m $.m $.].1X1X] Z 0X`.w L                   ",
"                  { 5.m.` ` %. . .7X'.N.u.p p a ~ ( ` U.mXNXNXZ %.NXNXxXG.` ~ R p a p Z.Z.4X1X .%.&.` $.m.*.[                   ",
"                = 4XW.# = U.u.S 2 / W.].^.- 7 8 :X>XwXNXNXnXY %.{  .NXNXNX9X:X.X4 4 ; ].].W.T 2 D u.N.$ $ '.'.-                 ",
"              g hXF 5 9 BXw M.fXB 2 # # + W.tXP.:XzXNXNXhXK &.XXJ.` ..NXNXNXaX;XP.iXV.. + = 5 U vX[ S lX# : K zXw               ",
"            % k jXg A yXL R.} i + yX} H 7XiX0XP.zXNXcX'.[ $.&XqXqX.X&.} 7XcXnXaXP.sXiX0Xx b.!.O g =.E.] lXw A hXu o             ",
"          o F tXg - H fX# Y } c.D.hX} H %X$XXXP.MXNX~.{ &.9X$Xu.u.%X&X` { '.NXbXI.XX$X$Xf m.fXD.a.[ L 5 VX9 ; Z dXl o           ",
"          *.].X.# W A.uXc.p 0.zXcXE.z.F.=X|.oX+Xm.yXD.$.9X>X' # # 1.qXwXR !.5Xm.%X.X}.=Xb.M.W.cXgX` h b.uXt.m % 7.'.Y           ",
"        = x.W.# 3 R p.9X4XG b.bXiXK R.NXNX&X0X8XO !.aX>X:X| # # # - %.wX>XgXE.O fX0X$XNXNXn./ aXfX| ! 4XwX;.m 1 $ ].%.$         ",
"        v.m.# + B 8 u H.+.2 ` <XNXNXnXjXmXNX} w BXmXaX>X-X# + F Z # - wX9XgXmXlX$ n.NXNXhXMXNXNXy.d 7 3.Y.= r n $ # J.6.        ",
"      > v.m.# & m v = $ = d.[.dXmXeXV.F H K 5.J.NXxXrXU.h # - 2XR.- # h .XuXnXNXA.^ F F F Q.uXNX.Xj.+.& # = m m $ # R.z.>       ",
"      # a.7.f BXp.B B = # }.gXmXNX9X2.$ ^ / Q.uXxX#XZ.k # + 3XNXNX~.# # A ).9XbXuXc.^ ! # Z.qXNXeX|.y.# = T V Z.BX= b.X.%       ",
"      # j c.3X_.tXj.s.2 $ }.gXmXqX>X2.; eXuXbXxX*XP.f # + R.bXNXNXfX[ + # I oX0XnXcXeX$X+ S.>X9XqX|.y.# 0 g.L.tX+X7Xq.a #       ",
"    > D.{ I w.b z.y.T = # I.U.b.0.6.D ; uXgXgX%Xh.b $ # =.bXNXNXNXNX8XL # ; H |.0XcXaX+X# ^ 6.6.N.j.,.@ 1 ~ i.7.G p.b %.M.,     ",
"    9 tX*.1 d f - c # ; h g.;.r = + D %.aXgXXXK.+.O O Y {.NXNXNXNXNXNXE.F # # p.}.6XgX0X{ u $ = c O.,.a $ # b 1 f p ; 6.{.7     ",
"  * tXXXI ; t MX..# q ` qXj.;.;.@.2 R.NXbX*Xk.d.p O e fXNXNXNXNXNXNXNXNX].7 + v L./.0XnXNX7.d :.+.+.h.@Xj 1 # z.dX5 = ~ _.L.o   ",
"  * *XI.1 u.eXeXY @ S././.;XeXeXeX<.%XNXtXk.O.v O . vXNXNXNXNXNXNXNXNXNXNX'.. # U t.P.gXNXH.t.eXwXwX/.g.g._ + 5.rXeX{ # ` L.o   ",
"  * *XI.1 u.[.u.z @..X X0XzXbXn.1 lXnX7XI.8.s 1 + fXNXNXNXNXNXNXNXNXNXNXNXmX!.# 7 b d.}.zXxXD.< 8XbXdXXXl.s.m I p.:X] # ` G.o   ",
"  * =Xj.2 u._.z r i.&X0XcX3X2.6.3XmX7X.Xy.r = - 1XNXNXNXNXNXNXNXNXNXNXNXNXNXxX!.# = h j.6XpXlX3X .b.fXiX%Xl.) p G =X' # ` G.*   ",
"  @ =XI # | 4Xz.% p.9XmX5XC.h.%XNXzXh.t.T # # { xXzXmXNXNXNXNXNXNXNXNXNXNXcX7X4XK # # ` K./.MXNX0Xp.R.8XNXg.Q # W.{.I # ~ G.#   ",
"  + Z 1 v s k Y.# p.=XfX+ J.nXNXMX@XK.W # # # vX9X:XcXNXNXNXNXNXNXNXNXNXnX4Xy.t.yX# # # t.|.=XmXNXbX| S NXg.E % .X7 v a 5 f #   ",
"  - x.z.( 8 D `.+ R.4Xc.R.yXjX9X:XE 1 # # Y E.sX>X>X9XgXnXNXNXNXNXNXNXdX).e.r.r.G.u.h # # 0 $.9X9XhX1XE.Z.6Xc.+ 6Xx r / x.z.$   ",
"  ; NXNX7.q K R.l c.b.+.xXcX9X&XW & # # D F.cX9X>X:X9X>XaXmXNXNXNXNXcXG.r.r.y.y.s.XX@.p + # 1 4.-X:XzX0XO.F.7.l ~.F y b.NXNX-   ",
"  - NXiX9XMXR.6 VXS.;.;.>X:XP.g.E # # $ =X>X:X9X9X9X9X9X>XsXNXNXmXNXj.r.r.r.r.e.r.r.r.>.+ # = +.k.#X>X.X<.<.U.NX> W.NXqXaXNX*   ",
"  - NXcXv.} [ }  .4.8.;.wX>X}.I.E # # # ! U.>X9X9X9X9X9X>X9XuXNXfXH.t.r.r.r.r.r.r.r.O.a + + ; +.P.;X>X#X+.w.5. .*.] } F.cXNX-   ",
"  = n.n.D 2 H OX# q.Y.i.A.*XqX>X:.8 4 ; # %.J.9X9X9X9X9X9X9X9XzX4Xy.r.r.r.r.r.r.e.+.z # 7 7 p p.qXeX_.A.C.(.1.# 3Xg 2 Y n.n.#   ",
"  # # # s p j S.+ Q G.fX% !.uXqX,X/.k.W + # + 9X9X9X9X>X9X9X>X>Xh.r.r.r.r.r.r.r.8.+ # # d.P..X9X9XaX7.D MX<.n # I.9 j p # @ +   ",
": # %XJ = v t.1X# ) L.nX2Xq W.cXnXxXK.>.j # # A :X9X9X>X9X9X9X>Xh.r.r.r.r.r.r.,.0 # # b h.0XxXbXzXH u.OXaX;.n # tX8.a $ ~ j.#   ",
"  & :XI # 1.H.} + :.(.6XxXD.2.R.NXNX6X.X:.# # # H.J.:X9X9X9X9X9Xh.r.r.r.r.,.+.) # + = d.6XcXNXNX6.5.$X=XXXg.Q # =.(.I # / G.#   ",
"  * =XI # u.S.1 = 1..XI.6XzX0.&.E.NXNXpXY.t.q # # + %X9X9X9X9X9Xh.r.r.r.r.) + # + c h.XXNXNX5XE.! ).rX(.h.K.W = 2 ).' $ ( G.&   ",
"  & =XS.8 u.wXwXI + f.I.K.#XqXu.h pXcXNXiXK.:.R # + ! $X9X9X9X9Xh.r.r.r.:.p # + W y.Y.NXNXhXn.y @X>XP.g.g.T # 4.>X>X' a L.L.;   ",
"  & 6XP.s k / wXI + h ~ oXy.j.@XoX+ E.NXcX*X(.j.p # # 2.).9X9X9Xh.r.r.+.v # + j K.%X6XNXNX*.j .X.X8.y.I.b 8 # 4.&X~ q G /.I.*   ",
"    A +X/ ; 8 ' 9 0 # 2 c O.N = # + # fXNXNX6X}.t.7 # # { H.qX>Xh.e.+.p + $ 7 L.oXxXNXNX~.# + + @ v E h $ # r h ~ 3 & &._.l     ",
"    % W./ a ` 3 Z #.r $ # s.L.A.3.8.b 5 qXcXNX7X}. X1 + # # wXqXh.;.# # + f .X|.iXNXhXXX* Q 8.8.A.j.O.# = p 3.D 0 +.r | D.o     ",
"      O s Z.zXI.MX.XI.2 @ K.-X:X/.g.Q - wXuXmXNX0X|.w.9 # # H ).1.r + # h i.#XiXNXnXeXXX# :.h.(.>X}.>.# 0 Y.oXvX XzXi.s #       ",
"      O u.7.Z xX0.n n $ $ d.|.qXwXl.Q = b.i.'.iXmX=X#Xp.# # # q.G # # $ A.;X9XmX7XW.i.4.+ >.K.wX>Xh.+.+ = n m u.xX, N.%.#       ",
"      # i.u.q F.` n ; + # :.j.$XeXP.3.t u f 2.J.NXzXrX;X1.# # # $ # = 4.:XeXhXnXd.G u u q p./.eX$X3.E + + 2 m #.F.- S.5.*       ",
"        3.1.< a m 1 t S.M = r _ NXNXzXeXNXNX} 6 NXNXiX:X:X` # # # # { >X>XgXNXbX$ n.NXNXqXxXNXnXm 4 ; m Y.= 3 m a $ q.'         ",
"        t 4.4.k 8 T t.:XOXw *.dXeX%.A.wXeXeXiX3X- !.m.( 9X>Xz + + G >X,XD R.E.- pXiXeXeXqXu.4.uXpXY f 1X,X:.m 3 j q.$.9         ",
"        > / _.$X# _ G.uX!.w %.gXaXq.5.A.(.Y._.Q.K 3XM.J %X>XXX7 7 XX>X%Xt R.{.H `._.Y.Y.S.%.x.aXzXY u ].eXd.U # :X).J 6         ",
"          . D $X+ # K lXX = ! _.zXcX} h >.;.O.O.bXNXuXA.# ,XqXqXqXqX$XO ).zXNXdX) O.O.O.1 m.bXdX).J = 5 VXw @ # 9Xh #           ",
"            - / _.u K nXb.xX .$ @.tXY j f.P.g.O.+XdXcX<X(.1 XXqXqXH.7 XX>XnXyXU.) j.L.p.1 5.Q.T O 0.fXn.NXw h `.Y ;             ",
"            > t J./ H *.gXL } b.# @.p + + $.8.E l.XX7XaX>XJ.- J.q.t U.qXaX4XU.,.B y./ + + G #.$ n.] } gX..G #.Q.6 >             ",
"              : # Y.Z.2 { { W.8Xv + D.iXOXO O + h.g.l.).wXqX(.D ! ).wXqXH.e.e.>.O O # kXiX7.$ m yXD.&.{ $ (.L.# :               ",
"                  l ( Y.< @.j # + W.V.3.@.v n n 8 r c ) 1.9XwX3.p.qX$X@.E p 8 3 m n M 3.1.J.v.O # b W < Y.H k                   ",
"                  x q Z.U.p ` H.H.9X~ R %.m 0 9 D.V.l 3 T T @XP./.(.U m 4 k D.n.8 r m 5.b { =XH.H.J j H.b.; >                   ",
"                    > 5 XXM @.N.B.J $ %.3Xm 1 Y !.dX2.j 8 8 t S.i.t 8 7 b q.pXQ.K 1 m fXA # R Z.N.R T U.# >                     ",
"                      : O.P.w.8 @ # $ m U m 9 vXd %X>XXXj r 8 J D 8 8 h -XqX).B lX2 m E v # @ @ 8 S.K.T ;                       ",
"                        * - I &X&X` 3 + 0 p = A yXnX.XK.K.a E < 4 m c L.I.@XbXtXi = a 0 # 8 @.&X-Xk - *                         ",
"                            e ^ / Z.S.c.+ + + $ S F p.k.B $ ; A.j.= 2 B I.9.F S # + # < C.A.i.^ ^ g                             ",
"                              X X 5.F.=Xu.i.{ + # # h G B @.#.( ( _ _ B G t + # + q.u.b.=XV.2.. X                               ",
"                                  i 6 q.c.c.0.3.1.1.1.R = q.&X5.x.XX3.= ` 1.1.3.1.0.c.u.4.* >                                   ",
"                                      X % $ l J.J.&X&XS.4 # 2XNXNX~.$ 4 Y.&X@XJ.J.5 # # #                                       ",
"                                          X # # + s.s.s.s.$ !.fX3Xx.8 j.d.s.3.X # # #                                           ",
"                                                  X + # # # K [ [ F # + O # ;                                                   ",
"                                                          * - ; ; ; >                                                           "
};
